<svg width="20" height="16" viewBox="0 0 20 16" fill="none" xmlns="http://www.w3.org/2000/svg">
<path d="M18.3571 5.42843C18.3571 5.08744 18.2216 4.76041 17.9805 4.51929C17.7394 4.27818 17.4124 4.14272 17.0714 4.14272H14.5L12.5714 1.57129H7.42854L5.49997 4.14272H2.92854C2.58754 4.14272 2.26052 4.27818 2.0194 4.51929C1.77828 4.76041 1.64282 5.08744 1.64282 5.42843V13.1427C1.64282 13.4837 1.77828 13.8107 2.0194 14.0519C2.26052 14.293 2.58754 14.4284 2.92854 14.4284H17.0714C17.4124 14.4284 17.7394 14.293 17.9805 14.0519C18.2216 13.8107 18.3571 13.4837 18.3571 13.1427V5.42843Z" stroke="white" stroke-width="1.5" stroke-linecap="round" stroke-linejoin="round"/>
<path d="M9.99997 11.5356C11.5976 11.5356 12.8928 10.2404 12.8928 8.64272C12.8928 7.04504 11.5976 5.74986 9.99997 5.74986C8.40228 5.74986 7.10711 7.04504 7.10711 8.64272C7.10711 10.2404 8.40228 11.5356 9.99997 11.5356Z" stroke="white" stroke-width="1.5" stroke-linecap="round" stroke-linejoin="round"/>
</svg>
