<svg width="37" height="37" viewBox="0 0 37 37" fill="none" xmlns="http://www.w3.org/2000/svg">
<g clip-path="url(#clip0_129_2700)">
<path d="M35.6786 13.2147C35.6786 12.5138 35.4001 11.8416 34.9045 11.3459C34.4089 10.8503 33.7367 10.5718 33.0357 10.5718H27.75L23.7857 5.28613H13.2143L9.25001 10.5718H3.9643C3.26337 10.5718 2.59115 10.8503 2.09552 11.3459C1.59988 11.8416 1.32144 12.5138 1.32144 13.2147V29.0718C1.32144 29.7728 1.59988 30.445 2.09552 30.9406C2.59115 31.4363 3.26337 31.7147 3.9643 31.7147H33.0357C33.7367 31.7147 34.4089 31.4363 34.9045 30.9406C35.4001 30.445 35.6786 29.7728 35.6786 29.0718V13.2147Z" stroke="#989898" stroke-width="3.42857" stroke-linecap="round" stroke-linejoin="round"/>
<path d="M18.5 25.7679C21.7841 25.7679 24.4464 23.1056 24.4464 19.8214C24.4464 16.5373 21.7841 13.875 18.5 13.875C15.2159 13.875 12.5536 16.5373 12.5536 19.8214C12.5536 23.1056 15.2159 25.7679 18.5 25.7679Z" stroke="#989898" stroke-width="3.42857" stroke-linecap="round" stroke-linejoin="round"/>
</g>
<defs>
<clipPath id="clip0_129_2700">
<rect width="37" height="37" fill="white"/>
</clipPath>
</defs>
</svg>
