<svg width="20" height="20" viewBox="0 0 20 20" fill="none" xmlns="http://www.w3.org/2000/svg">
<path d="M1 13.4615V10C1 7.61305 1.94821 5.32387 3.63604 3.63604C5.32387 1.94821 7.61305 1 10 1C12.3869 1 14.6761 1.94821 16.364 3.63604C18.0518 5.32387 19 7.61305 19 10V13.4615M5.15366 10.6924H6.53827C7.30298 10.6924 7.92289 11.3123 7.92289 12.077V17.6154C7.92289 18.3801 7.30298 19.0001 6.53827 19.0001H5.15366C4.38896 19.0001 3.76904 18.3801 3.76904 17.6154V12.077C3.76904 11.3123 4.38896 10.6924 5.15366 10.6924ZM13.4618 10.6924H14.8464C15.6111 10.6924 16.231 11.3123 16.231 12.077V17.6154C16.231 18.3801 15.6111 19.0001 14.8464 19.0001H13.4618C12.6971 19.0001 12.0771 18.3801 12.0771 17.6154V12.077C12.0771 11.3123 12.6971 10.6924 13.4618 10.6924Z" stroke="white" stroke-width="1.5" stroke-linecap="round" stroke-linejoin="round"/>
</svg>
