<svg width="32" height="32" viewBox="0 0 32 32" fill="none" xmlns="http://www.w3.org/2000/svg">
<path d="M4.16429 29.8574L27.7357 29.8574C28.9192 29.8574 29.8786 28.898 29.8786 27.7146L29.8786 4.14314C29.8786 2.95967 28.9192 2.00028 27.7357 2.00028L4.16429 2.00028C2.98082 2.00028 2.02143 2.95967 2.02143 4.14314L2.02143 27.7146C2.02143 28.898 2.98082 29.8574 4.16429 29.8574Z" stroke="#989898" stroke-width="3.42857" stroke-linecap="round" stroke-linejoin="round"/>
<path d="M20.75 14.8574C22.8211 14.8574 24.5 13.1785 24.5 11.1074C24.5 9.03635 22.8211 7.35742 20.75 7.35742C18.6789 7.35742 17 9.03635 17 11.1074C17 13.1785 18.6789 14.8574 20.75 14.8574Z" stroke="#989898" stroke-width="3.42857" stroke-linecap="round" stroke-linejoin="round"/>
<path d="M21.0714 29.8573C20.3814 26.1823 18.4082 22.8719 15.5037 20.517C12.5993 18.162 8.95255 16.9156 5.21429 17.0001C4.13574 16.9972 3.05939 17.0977 2 17.3001" stroke="#989898" stroke-width="3.42857" stroke-linecap="round" stroke-linejoin="round"/>
<path d="M29.8571 22.1647C28.1312 21.5819 26.3216 21.2851 24.5 21.2862C22.1941 21.2812 19.9116 21.7479 17.7928 22.6576" stroke="#989898" stroke-width="3.42857" stroke-linecap="round" stroke-linejoin="round"/>
</svg>
