<svg width="32" height="32" viewBox="0 0 32 32" fill="none" xmlns="http://www.w3.org/2000/svg">
<circle cx="16" cy="16" r="16" fill="white"/>
<path d="M17.3846 25H8.38462C8.01739 25 7.66521 24.8541 7.40554 24.5945C7.14588 24.3348 7 23.9826 7 23.6154V8.38462C7 8.01739 7.14588 7.66521 7.40554 7.40554C7.66521 7.14588 8.01739 7 8.38462 7H18.7692" stroke="#056C84" stroke-width="1.5" stroke-linecap="round" stroke-linejoin="round"/>
<path d="M20.8462 11.1538L22.9231 7L25 11.1538V22.9231C25 23.4739 24.7812 24.0022 24.3917 24.3917C24.0022 24.7812 23.4739 25 22.9231 25C22.3723 25 21.844 24.7812 21.4545 24.3917C21.065 24.0022 20.8462 23.4739 20.8462 22.9231V11.1538Z" stroke="#056C84" stroke-width="1.5" stroke-linecap="round" stroke-linejoin="round"/>
<path d="M20.8462 19.4619H25" stroke="#056C84" stroke-width="1.5" stroke-linecap="round" stroke-linejoin="round"/>
<path d="M11.1538 7V25" stroke="#056C84" stroke-width="1.5" stroke-linecap="round" stroke-linejoin="round"/>
<path d="M14.6154 11.8467H17.3846" stroke="#056C84" stroke-width="1.5" stroke-linecap="round" stroke-linejoin="round"/>
</svg>
