<svg width="21" height="22" viewBox="0 0 21 22" fill="none" xmlns="http://www.w3.org/2000/svg">
<path d="M19.8376 4.6464C19.7597 4.53955 19.6532 4.4575 19.5307 4.40996L10.7622 1.05552C10.6793 1.0189 10.5897 1 10.4992 1C10.4086 1 10.3191 1.0189 10.2361 1.05552L1.46765 4.46907C1.35181 4.50009 1.246 4.56123 1.16076 4.6464C1.05867 4.77127 1.00194 4.92771 1 5.08972V15.9067C1.0019 16.0543 1.04745 16.1979 1.1308 16.319C1.21415 16.4402 1.33148 16.5333 1.46765 16.5864L10.2361 20H10.4992H10.7622L19.5307 16.5864C19.6669 16.5333 19.7842 16.4402 19.8675 16.319C19.9509 16.1979 19.9965 16.0543 19.9984 15.9067V5.14882C20.0107 4.96667 19.9531 4.78671 19.8376 4.6464V4.6464Z" stroke="#1B283D" stroke-width="1.5" stroke-linecap="round" stroke-linejoin="round"/>
<path d="M10.5811 20.3231V8.58997" stroke="#1B283D" stroke-width="1.5" stroke-linecap="round" stroke-linejoin="round"/>
<path d="M10.5811 8.58997V20.3231" stroke="#1B283D" stroke-width="1.5" stroke-linecap="round" stroke-linejoin="round"/>
<path d="M1.16211 4.96387L10.5811 8.58994L20 4.96387" stroke="#1B283D" stroke-width="1.5" stroke-linecap="round" stroke-linejoin="round"/>
</svg>
