<svg width="20" height="20" viewBox="0 0 20 20" fill="none" xmlns="http://www.w3.org/2000/svg">
<path d="M9.99999 11.384C11.9117 11.384 13.4615 9.83423 13.4615 7.92248C13.4615 6.01072 11.9117 4.46094 9.99999 4.46094C8.08824 4.46094 6.53845 6.01072 6.53845 7.92248C6.53845 9.83423 8.08824 11.384 9.99999 11.384Z" stroke="white" stroke-width="1.5" stroke-linecap="round" stroke-linejoin="round"/>
<path d="M14.5831 15.1922C13.3179 14.0747 11.688 13.458 10 13.458C8.31198 13.458 6.68211 14.0747 5.41693 15.1922" stroke="white" stroke-width="1.5" stroke-linecap="round" stroke-linejoin="round"/>
<path d="M19 14.8457V17.6149C19 17.9822 18.8541 18.3343 18.5944 18.594C18.3348 18.8537 17.9826 18.9996 17.6154 18.9996H14.8461" stroke="white" stroke-width="1.5" stroke-linecap="round" stroke-linejoin="round"/>
<path d="M14.8461 1H17.6154C17.9826 1 18.3348 1.14588 18.5944 1.40554C18.8541 1.66521 19 2.01739 19 2.38462V5.15385" stroke="white" stroke-width="1.5" stroke-linecap="round" stroke-linejoin="round"/>
<path d="M1 5.15385V2.38462C1 2.01739 1.14588 1.66521 1.40554 1.40554C1.66521 1.14588 2.01739 1 2.38462 1H5.15385" stroke="white" stroke-width="1.5" stroke-linecap="round" stroke-linejoin="round"/>
<path d="M5.15385 18.9996H2.38462C2.01739 18.9996 1.66521 18.8537 1.40554 18.594C1.14588 18.3343 1 17.9822 1 17.6149V14.8457" stroke="white" stroke-width="1.5" stroke-linecap="round" stroke-linejoin="round"/>
</svg>
