<svg width="12" height="18" viewBox="0 0 12 18" fill="none" xmlns="http://www.w3.org/2000/svg">
<path d="M6.00404 11.7724C7.67301 11.7724 8.79644 10.513 8.79644 8.71285V3.05923C8.79644 1.25071 7.67301 0 6.00404 0C4.32699 0 3.20254 1.25071 3.20254 3.05923V8.71285C3.20254 10.513 4.32699 11.7724 6.00404 11.7724ZM0 8.84805C0 12.1603 2.17106 14.4846 5.36655 14.7554V16.7243H2.25492C1.90335 16.7243 1.61845 17.0114 1.61845 17.3668C1.61845 17.7211 1.90335 18 2.25492 18H9.74406C10.0966 18 10.3816 17.7211 10.3816 17.3668C10.3816 17.0114 10.0966 16.7243 9.74406 16.7243H6.63342V14.7554C9.83599 14.4846 12 12.1603 12 8.84805V7.13248C12 6.77758 11.7232 6.49873 11.3706 6.49873C11.019 6.49873 10.7341 6.77758 10.7341 7.13248V8.79735C10.7341 11.6787 8.8722 13.5887 6.00404 13.5887C3.12779 13.5887 1.26586 11.6787 1.26586 8.79735V7.13248C1.26586 6.77758 0.989035 6.49873 0.628368 6.49873C0.276793 6.49873 0 6.77758 0 7.13248V8.84805Z" fill="#3C3C43" fill-opacity="0.6"/>
</svg>
