<svg width="155" height="48" viewBox="0 0 155 48" fill="none" xmlns="http://www.w3.org/2000/svg">
<path d="M0.121116 8.21139L4.71632 15.4516L9.38258 7.04285H0.760654C0.160593 7.04285 -0.202601 7.70607 0.121116 8.20349V8.21139Z" fill="#2FD9E4"/>
<path d="M9.93526 23.5761C10.2274 23.9946 10.9301 23.8367 11.167 23.3788L19.6862 7.81665C19.8836 7.44556 19.5915 7.0113 19.1809 7.04289H13.7251L7.06128 19.0678L9.93526 23.5761Z" fill="#01ACC2"/>
<path d="M12.707 27.9108L14.6493 30.9585C15.0125 31.5269 15.8495 31.5033 16.1811 30.919L28.6639 8.7957L24.503 7.05078L12.707 27.9108Z" fill="#007999"/>
<path d="M21.7708 5.80322L30.4243 0L31.2375 10.1931L21.7708 5.80322Z" fill="#007999"/>
<path d="M34.5141 20.9627C34.5694 22.1865 34.7589 23.2445 35.0826 24.1367C35.4063 25.0289 35.8406 25.7711 36.3775 26.3633C36.9144 26.9554 37.5697 27.3976 38.3198 27.6818C39.0699 27.974 39.9147 28.1161 40.8385 28.1161C41.7622 28.1161 42.4886 28.0134 43.1361 27.8082C43.7835 27.6029 44.3441 27.3818 44.8257 27.137C45.3073 26.8923 45.71 26.6633 46.0495 26.458C46.389 26.2527 46.6969 26.1501 46.9812 26.1501C47.3444 26.1501 47.6286 26.2922 47.826 26.5686L49.113 28.2345C48.5761 28.8662 47.976 29.4031 47.297 29.8373C46.6259 30.2716 45.9074 30.6269 45.1415 30.9032C44.3836 31.1796 43.6019 31.3769 42.7965 31.4954C41.9912 31.6138 41.2174 31.677 40.4516 31.677C38.9593 31.677 37.5776 31.4243 36.3064 30.9269C35.0352 30.4295 33.9299 29.6952 32.9982 28.724C32.0586 27.7529 31.3322 26.5528 30.8032 25.1158C30.2742 23.6788 30.0137 22.0286 30.0137 20.1574C30.0137 18.6651 30.2505 17.2755 30.7164 15.9806C31.1901 14.6858 31.8612 13.5646 32.7455 12.6014C33.6219 11.646 34.6957 10.888 35.9511 10.3353C37.2065 9.78265 38.6356 9.49841 40.2226 9.49841C41.5412 9.49841 42.765 9.71159 43.894 10.138C45.0152 10.5643 45.9863 11.196 46.8075 12.025C47.6207 12.854 48.2603 13.8725 48.7182 15.0727C49.1761 16.2728 49.4051 17.6466 49.4051 19.1783C49.4051 19.881 49.3262 20.3548 49.1761 20.5916C49.0182 20.8285 48.7419 20.9469 48.3313 20.9469H34.5141V20.9627ZM45.3389 18.1756C45.3389 17.4176 45.2284 16.707 45.0152 16.0517C44.7941 15.3964 44.4783 14.8279 44.0519 14.3384C43.6256 13.8567 43.1045 13.4778 42.4807 13.2014C41.857 12.9251 41.1306 12.7909 40.3174 12.7909C38.6751 12.7909 37.3802 13.2646 36.4327 14.2042C35.4853 15.1437 34.8931 16.4702 34.6405 18.1677H45.3389V18.1756Z" fill="black"/>
<path d="M58.2479 0.142212V31.3691H53.708V0.142212H58.2479Z" fill="black"/>
<path d="M73.1625 9.50647C74.7495 9.50647 76.1865 9.76702 77.4735 10.2881C78.7605 10.8092 79.8579 11.5435 80.7659 12.5068C81.6739 13.4621 82.3766 14.6228 82.8661 15.9887C83.3557 17.3546 83.6004 18.8864 83.6004 20.5918C83.6004 22.2972 83.3557 23.829 82.8661 25.1949C82.3766 26.5608 81.6739 27.7215 80.7659 28.6847C79.8579 29.648 78.7605 30.3902 77.4735 30.9113C76.1865 31.4324 74.7495 31.6929 73.1625 31.6929C71.5755 31.6929 70.1148 31.4324 68.8279 30.9113C67.5409 30.3902 66.4434 29.648 65.5275 28.6847C64.6117 27.7215 63.909 26.5608 63.4194 25.1949C62.9299 23.829 62.6772 22.2972 62.6772 20.5918C62.6772 18.8864 62.922 17.3546 63.4194 15.9887C63.909 14.6228 64.6117 13.4621 65.5275 12.5068C66.4434 11.5514 67.5409 10.8092 68.8279 10.2881C70.1148 9.76702 71.5597 9.50647 73.1625 9.50647ZM73.1625 28.132C75.1048 28.132 76.5497 27.4846 77.4972 26.1818C78.4446 24.8791 78.9184 23.0236 78.9184 20.5997C78.9184 18.1758 78.4446 16.3124 77.4972 15.0018C76.5497 13.6911 75.1048 13.0279 73.1625 13.0279C71.2202 13.0279 69.728 13.6832 68.7726 15.0018C67.8172 16.3203 67.3356 18.1837 67.3356 20.5997C67.3356 23.0157 67.8172 24.8791 68.7726 26.1818C69.728 27.4846 71.1886 28.132 73.1625 28.132Z" fill="black"/>
<path d="M103.165 14.0701C103.023 14.2517 102.889 14.3938 102.763 14.4886C102.636 14.5833 102.455 14.6386 102.21 14.6386C101.965 14.6386 101.721 14.5517 101.46 14.3859C101.199 14.2201 100.892 14.0306 100.528 13.8253C100.173 13.62 99.7388 13.4384 99.2335 13.2647C98.7282 13.091 98.0965 13.0121 97.3386 13.0121C96.3516 13.0121 95.491 13.1858 94.7567 13.5411C94.0145 13.8964 93.3987 14.3938 92.9013 15.0491C92.4038 15.7045 92.0328 16.494 91.7801 17.4336C91.5353 18.3732 91.409 19.4233 91.409 20.5918C91.409 21.7603 91.5432 22.8736 91.8117 23.8211C92.0801 24.7606 92.4591 25.5581 92.9644 26.2055C93.4618 26.853 94.0698 27.3425 94.7804 27.682C95.491 28.0215 96.2885 28.1873 97.1728 28.1873C98.0571 28.1873 98.7519 28.0847 99.3045 27.8715C99.8572 27.6583 100.307 27.4293 100.678 27.1767C101.042 26.924 101.357 26.6951 101.618 26.4819C101.878 26.2687 102.155 26.1661 102.455 26.1661C102.818 26.1661 103.102 26.3082 103.3 26.5845L104.587 28.2505C104.066 28.8821 103.489 29.419 102.858 29.8533C102.226 30.2875 101.555 30.6428 100.852 30.9192C100.149 31.1955 99.4151 31.3929 98.6571 31.5113C97.8991 31.6298 97.1333 31.6929 96.3595 31.6929C95.0252 31.6929 93.7777 31.4403 92.617 30.9429C91.4564 30.4454 90.4458 29.719 89.5772 28.7716C88.7087 27.8241 88.0297 26.6635 87.5323 25.2896C87.0349 23.9158 86.7822 22.3525 86.7822 20.5918C86.7822 19.0048 87.0112 17.5283 87.4612 16.1703C87.9113 14.8123 88.5666 13.6437 89.4351 12.6568C90.3036 11.6698 91.3695 10.904 92.6565 10.3434C93.9356 9.79071 95.412 9.50647 97.0859 9.50647C98.6492 9.50647 100.023 9.75913 101.207 10.2644C102.392 10.7698 103.458 11.4882 104.381 12.4199L103.181 14.0622L103.165 14.0701Z" fill="black"/>
<path d="M113.84 31.3691H108.882V0.987061H113.84V31.3691Z" fill="#01ACC2"/>
<path d="M141.965 5.10064H132.49V31.3691H127.571V5.10064H118.081V0.987061H141.965V5.10064Z" fill="#01ACC2"/>
<path d="M149.56 31.7085C147.776 31.7085 146.402 31.2032 145.438 30.2005C144.475 29.1977 143.994 27.7765 143.994 25.9527V13.4225H141.633C141.38 13.4225 141.159 13.3435 140.978 13.1777C140.796 13.0198 140.701 12.775 140.701 12.4513V10.6195L144.183 10.1142L145.178 3.89254C145.249 3.65568 145.367 3.45829 145.533 3.31617C145.699 3.16615 145.928 3.09509 146.204 3.09509H148.526V10.1616H154.495V13.4304H148.526V25.6447C148.526 26.4185 148.715 27.0107 149.094 27.4133C149.473 27.8239 149.978 28.0213 150.61 28.0213C150.965 28.0213 151.265 27.9739 151.518 27.8871C151.771 27.7923 151.992 27.6976 152.173 27.587C152.355 27.4844 152.513 27.3818 152.647 27.2949C152.781 27.2002 152.908 27.1607 153.042 27.1607C153.295 27.1607 153.5 27.3028 153.65 27.5792L155 29.7978C154.297 30.4137 153.468 30.8874 152.513 31.219C151.558 31.5506 150.571 31.7164 149.56 31.7164V31.7085Z" fill="black"/>
<path d="M3.72138 44.5151C4.09247 44.5151 4.43198 44.452 4.72411 44.3256C5.01625 44.1993 5.26891 44.0256 5.47419 43.7966C5.67947 43.5677 5.83738 43.2992 5.94003 42.9834C6.05056 42.6676 6.09794 42.3202 6.09794 41.9412V36.438H7.31385V41.9412C7.31385 42.4623 7.227 42.9439 7.06119 43.394C6.89539 43.844 6.65852 44.223 6.35059 44.5546C6.04267 44.8783 5.66368 45.1389 5.21364 45.3205C4.76359 45.5021 4.26617 45.5968 3.71349 45.5968C3.1608 45.5968 2.65548 45.5021 2.21333 45.3205C1.76329 45.1389 1.3843 44.8783 1.07638 44.5546C0.76845 44.2309 0.523688 43.844 0.357882 43.394C0.192076 42.9439 0.105225 42.4623 0.105225 41.9412V36.438H1.32114V41.9333C1.32114 42.3123 1.37641 42.6597 1.47905 42.9755C1.58959 43.2913 1.7396 43.5598 1.94488 43.7887C2.15017 44.0177 2.40283 44.1914 2.69496 44.3256C2.99499 44.452 3.3266 44.5151 3.70559 44.5151H3.72138Z" fill="black"/>
<path d="M11.1986 40.0145C11.3407 39.8565 11.4829 39.7144 11.6408 39.5881C11.7987 39.4618 11.9645 39.3512 12.1382 39.2644C12.3119 39.1775 12.5014 39.1065 12.6909 39.0591C12.8883 39.0117 13.1015 38.988 13.3225 38.988C13.6699 38.988 13.9779 39.0433 14.2463 39.1617C14.5148 39.2802 14.7358 39.4381 14.9174 39.6513C15.099 39.8644 15.2332 40.1171 15.328 40.4171C15.4227 40.7172 15.4701 41.0488 15.4701 41.412V45.4861H14.3411V41.412C14.3411 40.9303 14.2305 40.5514 14.0094 40.2829C13.7884 40.0145 13.4489 39.8802 12.9988 39.8802C12.6672 39.8802 12.3593 39.9592 12.0671 40.1171C11.775 40.275 11.5144 40.4961 11.2697 40.7645V45.4782H10.1406V39.0828H10.8196C10.9776 39.0828 11.0802 39.1617 11.1197 39.3196L11.2065 40.0145H11.1986Z" fill="black"/>
<path d="M19.3388 40.0777C19.6073 39.7461 19.9231 39.4776 20.2705 39.2723C20.6179 39.067 21.0285 38.9723 21.4864 38.9723C21.8575 38.9723 22.1891 39.0434 22.4892 39.1855C22.7892 39.3276 23.0419 39.5329 23.255 39.8092C23.4682 40.0856 23.6261 40.4251 23.7446 40.8356C23.8551 41.2462 23.9183 41.712 23.9183 42.241C23.9183 42.7148 23.8551 43.149 23.7288 43.5596C23.6024 43.9702 23.4208 44.3176 23.184 44.6176C22.9471 44.9176 22.655 45.1466 22.3155 45.3203C21.976 45.494 21.5891 45.573 21.1548 45.573C20.76 45.573 20.4284 45.5098 20.1442 45.3756C19.86 45.2413 19.6152 45.0597 19.402 44.8229V47.6495H18.2729V39.0828H18.952C19.1099 39.0828 19.2125 39.1618 19.252 39.3197L19.3546 40.0777H19.3388ZM19.3941 43.9465C19.5994 44.2228 19.8284 44.4202 20.0731 44.5307C20.3179 44.6413 20.5942 44.7044 20.8943 44.7044C21.4943 44.7044 21.9523 44.4913 22.2681 44.0649C22.5918 43.6386 22.7497 43.0306 22.7497 42.2489C22.7497 41.8305 22.7102 41.4752 22.6392 41.1751C22.5681 40.8751 22.4576 40.6304 22.3234 40.4409C22.1812 40.2514 22.0154 40.1092 21.8102 40.0224C21.6049 39.9355 21.3759 39.8882 21.1232 39.8882C20.76 39.8882 20.4363 39.975 20.16 40.1408C19.8836 40.3066 19.631 40.5435 19.402 40.8514V43.9465H19.3941Z" fill="black"/>
<path d="M27.4868 40.3698C27.6921 39.9355 27.9368 39.5881 28.229 39.3434C28.5211 39.0986 28.8843 38.9723 29.3107 38.9723C29.4449 38.9723 29.5712 38.9881 29.6975 39.0197C29.8239 39.0512 29.9344 39.0986 30.0292 39.1618L29.9502 39.9987C29.9265 40.1014 29.8634 40.1566 29.7607 40.1566C29.6975 40.1566 29.6186 40.1408 29.5002 40.1171C29.3896 40.0935 29.2554 40.0777 29.1133 40.0777C28.908 40.0777 28.7343 40.1092 28.5764 40.1645C28.4185 40.2277 28.2764 40.3145 28.15 40.4251C28.0237 40.5435 27.9132 40.6856 27.8184 40.8514C27.7158 41.0251 27.6289 41.2146 27.55 41.4357V45.4782H26.4209V39.0828H27.0683C27.1868 39.0828 27.2736 39.1065 27.321 39.1539C27.3684 39.2013 27.3999 39.2802 27.4157 39.3908L27.4947 40.3619L27.4868 40.3698Z" fill="black"/>
<path d="M37.025 44.594C36.8829 44.7598 36.7171 44.9099 36.5276 45.0362C36.3302 45.1625 36.1249 45.2652 35.9038 45.3441C35.6828 45.4231 35.4538 45.4862 35.2169 45.5257C34.9801 45.5652 34.7511 45.5889 34.5142 45.5889C34.0721 45.5889 33.6615 45.5178 33.2904 45.3678C32.9193 45.2178 32.5956 44.9967 32.3272 44.7125C32.0587 44.4282 31.8455 44.065 31.6955 43.6387C31.5455 43.2123 31.4666 42.7228 31.4666 42.1701C31.4666 41.7201 31.5376 41.3095 31.6718 40.9226C31.8061 40.5357 32.0035 40.1962 32.264 39.912C32.5246 39.6277 32.8325 39.4067 33.2036 39.2409C33.5747 39.0751 33.9931 38.9961 34.4511 38.9961C34.8379 38.9961 35.1854 39.0593 35.517 39.1856C35.8407 39.3119 36.1249 39.5014 36.3618 39.7383C36.5987 39.983 36.7881 40.2831 36.9224 40.6384C37.0566 40.9937 37.1277 41.3963 37.1277 41.8543C37.1277 42.028 37.1119 42.1464 37.0724 42.2096C37.0329 42.2727 36.9618 42.2964 36.8592 42.2964H32.5798C32.5956 42.6991 32.6509 43.0544 32.7456 43.3544C32.8404 43.6545 32.9825 43.8992 33.1562 44.1045C33.3299 44.3019 33.5431 44.4519 33.7878 44.5546C34.0326 44.6572 34.3089 44.7046 34.609 44.7046C34.8932 44.7046 35.138 44.673 35.3354 44.6098C35.5328 44.5467 35.7144 44.4756 35.8644 44.3966C36.0144 44.3177 36.1328 44.2545 36.2355 44.1835C36.3381 44.1124 36.4171 44.0887 36.4881 44.0887C36.5829 44.0887 36.6539 44.1203 36.7013 44.1993L37.0171 44.6098L37.025 44.594ZM36.117 41.5937C36.117 41.3332 36.0775 41.0963 36.0065 40.8752C35.9354 40.6621 35.8249 40.4726 35.6828 40.3146C35.5406 40.1567 35.367 40.0383 35.1696 39.9515C34.9643 39.8646 34.7353 39.8251 34.4826 39.8251C33.9458 39.8251 33.5194 39.983 33.2036 40.2989C32.8878 40.6147 32.6983 41.0489 32.6193 41.6016H36.117V41.5937Z" fill="black"/>
<path d="M44.028 40.2278C43.9964 40.2752 43.9649 40.3068 43.9254 40.3383C43.8938 40.362 43.8464 40.3778 43.7833 40.3778C43.7201 40.3778 43.649 40.3541 43.578 40.2989C43.499 40.2436 43.4122 40.1883 43.2937 40.1252C43.1753 40.062 43.049 40.0067 42.8832 39.9515C42.7174 39.8962 42.52 39.8725 42.2831 39.8725C41.9673 39.8725 41.6909 39.9278 41.4462 40.0383C41.2093 40.1488 41.004 40.3146 40.8461 40.5199C40.6882 40.7252 40.5619 40.9858 40.4829 41.2858C40.404 41.5858 40.3566 41.9174 40.3566 42.2885C40.3566 42.6596 40.404 43.0228 40.4908 43.3228C40.5777 43.6229 40.704 43.8755 40.8698 44.0808C41.0356 44.2861 41.2251 44.444 41.4541 44.5467C41.6831 44.6572 41.9436 44.7046 42.2278 44.7046C42.5121 44.7046 42.7253 44.673 42.9069 44.6098C43.0806 44.5467 43.2306 44.4756 43.349 44.3887C43.4674 44.3098 43.5622 44.2387 43.6411 44.1677C43.7201 44.0966 43.7991 44.0729 43.8701 44.0729C43.9649 44.0729 44.0359 44.1045 44.0833 44.1835L44.3991 44.594C44.257 44.7677 44.0991 44.9177 43.9254 45.0362C43.7517 45.1625 43.5622 45.2573 43.3569 45.3441C43.1516 45.4231 42.9384 45.4862 42.7174 45.5257C42.4963 45.5652 42.2673 45.581 42.0384 45.581C41.6357 45.581 41.2646 45.5099 40.9251 45.3599C40.5856 45.2099 40.2855 44.9967 40.0329 44.7204C39.7802 44.444 39.5828 44.0966 39.4407 43.686C39.2986 43.2755 39.2275 42.8096 39.2275 42.2885C39.2275 41.8148 39.2907 41.3727 39.4249 40.97C39.5592 40.5673 39.7486 40.2199 40.0092 39.9278C40.2619 39.6356 40.5777 39.4067 40.9488 39.2409C41.3199 39.0751 41.7462 38.9961 42.2357 38.9961C42.6858 38.9961 43.0806 39.0672 43.428 39.2172C43.7754 39.3672 44.0754 39.5646 44.3438 39.833L44.0438 40.2357L44.028 40.2278Z" fill="black"/>
<path d="M51.7579 44.594C51.6158 44.7598 51.45 44.9099 51.2605 45.0362C51.0631 45.1625 50.8578 45.2652 50.6368 45.3441C50.4157 45.4231 50.1867 45.4862 49.9498 45.5257C49.713 45.5652 49.484 45.5889 49.2471 45.5889C48.805 45.5889 48.3944 45.5178 48.0233 45.3678C47.6522 45.2178 47.3285 44.9967 47.0601 44.7125C46.7916 44.4282 46.5784 44.065 46.4284 43.6387C46.2784 43.2123 46.1995 42.7228 46.1995 42.1701C46.1995 41.7201 46.2705 41.3095 46.4047 40.9226C46.539 40.5357 46.7364 40.1962 46.9969 39.912C47.2575 39.6277 47.5654 39.4067 47.9365 39.2409C48.3076 39.0751 48.726 38.9961 49.184 38.9961C49.5709 38.9961 49.9183 39.0593 50.2499 39.1856C50.5736 39.3119 50.8578 39.5014 51.0947 39.7383C51.3316 39.983 51.5211 40.2831 51.6553 40.6384C51.7895 40.9937 51.8606 41.3963 51.8606 41.8543C51.8606 42.028 51.8448 42.1464 51.8053 42.2096C51.7658 42.2727 51.6948 42.2964 51.5921 42.2964H47.3127C47.3285 42.6991 47.3838 43.0544 47.4785 43.3544C47.5733 43.6545 47.7154 43.8992 47.8891 44.1045C48.0628 44.3019 48.276 44.4519 48.5208 44.5546C48.7655 44.6572 49.0419 44.7046 49.3419 44.7046C49.6261 44.7046 49.8709 44.673 50.0683 44.6098C50.2657 44.5467 50.4473 44.4756 50.5973 44.3966C50.7473 44.3177 50.8657 44.2545 50.9684 44.1835C51.071 44.1124 51.15 44.0887 51.221 44.0887C51.3158 44.0887 51.3868 44.1203 51.4342 44.1993L51.75 44.6098L51.7579 44.594ZM50.8499 41.5937C50.8499 41.3332 50.8105 41.0963 50.7394 40.8752C50.6683 40.6621 50.5578 40.4726 50.4157 40.3146C50.2736 40.1567 50.0999 40.0383 49.9025 39.9515C49.6972 39.8646 49.4682 39.8251 49.2156 39.8251C48.6787 39.8251 48.2523 39.983 47.9365 40.2989C47.6207 40.6147 47.4312 41.0489 47.3522 41.6016H50.8499V41.5937Z" fill="black"/>
<path d="M59.6062 36.1851V45.4861H58.9351C58.7772 45.4861 58.6746 45.4071 58.6351 45.2492L58.5325 44.4755C58.2561 44.8071 57.9482 45.0676 57.6008 45.2729C57.2534 45.4782 56.8428 45.5729 56.3849 45.5729C56.0217 45.5729 55.6822 45.5019 55.39 45.3598C55.09 45.2176 54.8373 45.0124 54.6242 44.736C54.411 44.4597 54.2531 44.1202 54.1346 43.7096C54.0241 43.299 53.9609 42.8332 53.9609 42.3042C53.9609 41.8305 54.0241 41.3962 54.1504 40.9856C54.2768 40.5751 54.4584 40.2277 54.6952 39.9276C54.9321 39.6276 55.2242 39.3907 55.5637 39.2249C55.9032 39.0591 56.2901 38.9723 56.7244 38.9723C57.1192 38.9723 57.4508 39.0354 57.735 39.1697C58.0192 39.3039 58.264 39.4855 58.4851 39.7223V36.1772H59.6062V36.1851ZM58.4851 40.6145C58.2719 40.3303 58.0508 40.1329 57.8061 40.0224C57.5613 39.9118 57.285 39.8566 56.9849 39.8566C56.3928 39.8566 55.9348 40.0697 55.6111 40.4961C55.2874 40.9225 55.1295 41.5304 55.1295 42.3121C55.1295 42.7305 55.1611 43.0858 55.24 43.3859C55.319 43.6859 55.4137 43.9307 55.5558 44.1202C55.698 44.3097 55.8638 44.4518 56.0691 44.5386C56.2743 44.6255 56.5033 44.6728 56.756 44.6728C57.127 44.6728 57.4508 44.586 57.7271 44.4202C58.0035 44.2544 58.2561 44.0175 58.4851 43.7096V40.6224V40.6145Z" fill="black"/>
<path d="M67.6517 44.594C67.5096 44.7598 67.3438 44.9099 67.1543 45.0362C66.9569 45.1625 66.7516 45.2652 66.5306 45.3441C66.3095 45.4231 66.0805 45.4862 65.8436 45.5257C65.6068 45.5652 65.3778 45.5889 65.1409 45.5889C64.6988 45.5889 64.2882 45.5178 63.9171 45.3678C63.546 45.2178 63.2223 44.9967 62.9539 44.7125C62.6854 44.4282 62.4722 44.065 62.3222 43.6387C62.1722 43.2123 62.0933 42.7228 62.0933 42.1701C62.0933 41.7201 62.1643 41.3095 62.2985 40.9226C62.4328 40.5357 62.6302 40.1962 62.8907 39.912C63.1513 39.6277 63.4592 39.4067 63.8303 39.2409C64.2014 39.0751 64.6198 38.9961 65.0778 38.9961C65.4647 38.9961 65.8121 39.0593 66.1437 39.1856C66.4674 39.3119 66.7516 39.5014 66.9885 39.7383C67.2254 39.983 67.4149 40.2831 67.5491 40.6384C67.6833 40.9937 67.7544 41.3963 67.7544 41.8543C67.7544 42.028 67.7386 42.1464 67.6991 42.2096C67.6596 42.2727 67.5886 42.2964 67.4859 42.2964H63.2065C63.2223 42.6991 63.2776 43.0544 63.3723 43.3544C63.4671 43.6545 63.6092 43.8992 63.7829 44.1045C63.9566 44.3019 64.1698 44.4519 64.4146 44.5546C64.6593 44.6572 64.9357 44.7046 65.2357 44.7046C65.5199 44.7046 65.7647 44.673 65.9621 44.6098C66.1595 44.5467 66.3411 44.4756 66.4911 44.3966C66.6411 44.3177 66.7595 44.2545 66.8622 44.1835C66.9648 44.1124 67.0438 44.0887 67.1148 44.0887C67.2096 44.0887 67.2806 44.1203 67.328 44.1993L67.6438 44.6098L67.6517 44.594ZM66.7437 41.5937C66.7437 41.3332 66.7043 41.0963 66.6332 40.8752C66.5621 40.6621 66.4516 40.4726 66.3095 40.3146C66.1674 40.1567 65.9937 40.0383 65.7963 39.9515C65.591 39.8646 65.362 39.8251 65.1094 39.8251C64.5725 39.8251 64.1461 39.983 63.8303 40.2989C63.5145 40.6147 63.325 41.0489 63.246 41.6016H66.7437V41.5937Z" fill="black"/>
<path d="M71.2599 40.0145C71.402 39.8565 71.5441 39.7144 71.7021 39.5881C71.86 39.4618 72.0258 39.3512 72.1995 39.2644C72.3732 39.1775 72.5627 39.1065 72.7522 39.0591C72.9495 39.0117 73.1627 38.988 73.3838 38.988C73.7312 38.988 74.0391 39.0433 74.3076 39.1617C74.576 39.2802 74.7971 39.4381 74.9787 39.6513C75.1603 39.8644 75.2945 40.1171 75.3893 40.4171C75.484 40.7172 75.5314 41.0488 75.5314 41.412V45.4861H74.4023V41.412C74.4023 40.9303 74.2918 40.5514 74.0707 40.2829C73.8496 40.0145 73.5101 39.8802 73.0601 39.8802C72.7285 39.8802 72.4205 39.9592 72.1284 40.1171C71.8363 40.275 71.5757 40.4961 71.331 40.7645V45.4782H70.2019V39.0828H70.8809C71.0388 39.0828 71.1415 39.1617 71.1809 39.3196L71.2678 40.0145H71.2599Z" fill="black"/>
<path d="M80.1972 45.5889C79.6919 45.5889 79.305 45.4468 79.0287 45.1625C78.7603 44.8783 78.6181 44.4756 78.6181 43.9466V40.0304H77.8444C77.7733 40.0304 77.718 40.0067 77.6707 39.9673C77.6233 39.9278 77.5996 39.8646 77.5996 39.7778V39.3277L78.6497 39.1935L78.9103 37.2196C78.9261 37.1564 78.9497 37.1012 78.9971 37.0617C79.0445 37.0222 79.0998 36.9985 79.1708 36.9985H79.7393V39.2014H81.5869V40.0146H79.7393V43.8519C79.7393 44.1203 79.8025 44.3177 79.9367 44.4519C80.0709 44.5861 80.2367 44.6493 80.442 44.6493C80.5604 44.6493 80.6631 44.6335 80.7499 44.6019C80.8368 44.5704 80.9078 44.5388 80.971 44.4993C81.0342 44.4598 81.0894 44.4282 81.1289 44.3967C81.1763 44.3651 81.2158 44.3493 81.2473 44.3493C81.3026 44.3493 81.3579 44.3809 81.4053 44.4598L81.7369 44.9967C81.5395 45.1783 81.3105 45.3204 81.0342 45.4231C80.7578 45.5257 80.4815 45.581 80.1893 45.581L80.1972 45.5889Z" fill="black"/>
<path d="M89.0008 44.594C88.8587 44.7598 88.6929 44.9099 88.5034 45.0362C88.306 45.1625 88.1008 45.2652 87.8797 45.3441C87.6586 45.4231 87.4296 45.4862 87.1928 45.5257C86.9559 45.5652 86.7269 45.5889 86.4901 45.5889C86.0479 45.5889 85.6373 45.5178 85.2663 45.3678C84.8952 45.2178 84.5714 44.9967 84.303 44.7125C84.0345 44.4282 83.8214 44.065 83.6714 43.6387C83.5213 43.2123 83.4424 42.7228 83.4424 42.1701C83.4424 41.7201 83.5134 41.3095 83.6477 40.9226C83.7819 40.5357 83.9793 40.1962 84.2398 39.912C84.5004 39.6277 84.8083 39.4067 85.1794 39.2409C85.5505 39.0751 85.969 38.9961 86.4269 38.9961C86.8138 38.9961 87.1612 39.0593 87.4928 39.1856C87.8165 39.3119 88.1007 39.5014 88.3376 39.7383C88.5745 39.983 88.764 40.2831 88.8982 40.6384C89.0324 40.9937 89.1035 41.3963 89.1035 41.8543C89.1035 42.028 89.0877 42.1464 89.0482 42.2096C89.0087 42.2727 88.9377 42.2964 88.835 42.2964H84.5557C84.5714 42.6991 84.6267 43.0544 84.7215 43.3544C84.8162 43.6545 84.9583 43.8992 85.132 44.1045C85.3057 44.3019 85.5189 44.4519 85.7637 44.5546C86.0084 44.6572 86.2848 44.7046 86.5848 44.7046C86.869 44.7046 87.1138 44.673 87.3112 44.6098C87.5086 44.5467 87.6902 44.4756 87.8402 44.3966C87.9902 44.3177 88.1086 44.2545 88.2113 44.1835C88.3139 44.1124 88.3929 44.0887 88.4639 44.0887C88.5587 44.0887 88.6297 44.1203 88.6771 44.1993L88.9929 44.6098L89.0008 44.594ZM88.0929 41.5937C88.0929 41.3332 88.0534 41.0963 87.9823 40.8752C87.9113 40.6621 87.8007 40.4726 87.6586 40.3146C87.5165 40.1567 87.3428 40.0383 87.1454 39.9515C86.9401 39.8646 86.7111 39.8251 86.4585 39.8251C85.9216 39.8251 85.4952 39.983 85.1794 40.2989C84.8636 40.6147 84.6741 41.0489 84.5951 41.6016H88.0929V41.5937Z" fill="black"/>
<path d="M96.8492 36.1851V45.4861H96.178C96.0201 45.4861 95.9175 45.4071 95.878 45.2492L95.7754 44.4755C95.499 44.8071 95.1911 45.0676 94.8437 45.2729C94.4963 45.4782 94.0857 45.5729 93.6278 45.5729C93.2646 45.5729 92.9251 45.5019 92.6329 45.3598C92.3329 45.2176 92.0803 45.0124 91.8671 44.736C91.6539 44.4597 91.496 44.1202 91.3776 43.7096C91.267 43.299 91.2039 42.8332 91.2039 42.3042C91.2039 41.8305 91.267 41.3962 91.3933 40.9856C91.5197 40.5751 91.7013 40.2277 91.9381 39.9276C92.175 39.6276 92.4671 39.3907 92.8067 39.2249C93.1462 39.0591 93.533 38.9723 93.9673 38.9723C94.3621 38.9723 94.6937 39.0354 94.9779 39.1697C95.2622 39.3039 95.5069 39.4855 95.728 39.7223V36.1772H96.8492V36.1851ZM95.728 40.6145C95.5148 40.3303 95.2937 40.1329 95.049 40.0224C94.8042 39.9118 94.5279 39.8566 94.2278 39.8566C93.6357 39.8566 93.1777 40.0697 92.854 40.4961C92.5303 40.9225 92.3724 41.5304 92.3724 42.3121C92.3724 42.7305 92.404 43.0858 92.4829 43.3859C92.5619 43.6859 92.6566 43.9307 92.7988 44.1202C92.9409 44.3097 93.1067 44.4518 93.312 44.5386C93.5172 44.6255 93.7462 44.6728 93.9989 44.6728C94.37 44.6728 94.6937 44.586 94.97 44.4202C95.2464 44.2544 95.499 44.0175 95.728 43.7096V40.6224V40.6145Z" fill="black"/>
<path d="M111.18 36.4378L107.492 45.4861H106.395L102.708 36.4378H103.687C103.797 36.4378 103.884 36.4615 103.955 36.5168C104.026 36.5721 104.074 36.6431 104.105 36.7221L106.656 43.1096C106.711 43.2517 106.766 43.4096 106.813 43.5754C106.869 43.7412 106.916 43.9228 106.956 44.1044C106.995 43.9228 107.042 43.7412 107.09 43.5754C107.137 43.4096 107.185 43.2517 107.24 43.1096L109.782 36.7221C109.806 36.651 109.853 36.5878 109.932 36.5247C110.003 36.4615 110.098 36.4299 110.201 36.4299H111.18V36.4378Z" fill="black"/>
<path d="M117.425 44.594C117.283 44.7598 117.117 44.9099 116.927 45.0362C116.73 45.1625 116.525 45.2652 116.304 45.3441C116.083 45.4231 115.854 45.4862 115.617 45.5257C115.38 45.5652 115.151 45.5889 114.914 45.5889C114.472 45.5889 114.061 45.5178 113.69 45.3678C113.319 45.2178 112.996 44.9967 112.727 44.7125C112.459 44.4282 112.245 44.065 112.095 43.6387C111.945 43.2123 111.866 42.7228 111.866 42.1701C111.866 41.7201 111.938 41.3095 112.072 40.9226C112.206 40.5357 112.403 40.1962 112.664 39.912C112.924 39.6277 113.232 39.4067 113.603 39.2409C113.975 39.0751 114.393 38.9961 114.851 38.9961C115.238 38.9961 115.585 39.0593 115.917 39.1856C116.241 39.3119 116.525 39.5014 116.762 39.7383C116.999 39.983 117.188 40.2831 117.322 40.6384C117.456 40.9937 117.528 41.3963 117.528 41.8543C117.528 42.028 117.512 42.1464 117.472 42.2096C117.433 42.2727 117.362 42.2964 117.259 42.2964H112.98C112.996 42.6991 113.051 43.0544 113.146 43.3544C113.24 43.6545 113.382 43.8992 113.556 44.1045C113.73 44.3019 113.943 44.4519 114.188 44.5546C114.433 44.6572 114.709 44.7046 115.009 44.7046C115.293 44.7046 115.538 44.673 115.735 44.6098C115.933 44.5467 116.114 44.4756 116.264 44.3966C116.414 44.3177 116.533 44.2545 116.635 44.1835C116.738 44.1124 116.817 44.0887 116.888 44.0887C116.983 44.0887 117.054 44.1203 117.101 44.1993L117.417 44.6098L117.425 44.594ZM116.517 41.5937C116.517 41.3332 116.477 41.0963 116.406 40.8752C116.335 40.6621 116.225 40.4726 116.083 40.3146C115.941 40.1567 115.767 40.0383 115.569 39.9515C115.364 39.8646 115.135 39.8251 114.883 39.8251C114.346 39.8251 113.919 39.983 113.603 40.2989C113.288 40.6147 113.098 41.0489 113.019 41.6016H116.517V41.5937Z" fill="black"/>
<path d="M121.136 36.1852V45.4861H120.015V36.1852H121.136Z" fill="black"/>
<path d="M126.726 38.988C127.192 38.988 127.61 39.067 127.989 39.2249C128.368 39.3828 128.684 39.6039 128.953 39.8881C129.221 40.1724 129.418 40.5198 129.56 40.9303C129.703 41.3409 129.774 41.791 129.774 42.2884C129.774 42.7858 129.703 43.2516 129.56 43.6543C129.418 44.057 129.213 44.4044 128.953 44.6886C128.684 44.9729 128.368 45.1939 127.989 45.3518C127.618 45.5019 127.192 45.5808 126.726 45.5808C126.26 45.5808 125.834 45.5019 125.455 45.3518C125.076 45.1939 124.76 44.9807 124.492 44.6886C124.223 44.4044 124.026 44.057 123.884 43.6543C123.741 43.2516 123.67 42.7937 123.67 42.2884C123.67 41.7831 123.741 41.333 123.884 40.9303C124.026 40.5277 124.231 40.1803 124.492 39.8881C124.76 39.6039 125.076 39.3828 125.455 39.2249C125.834 39.067 126.252 38.988 126.726 38.988ZM126.726 44.6965C127.358 44.6965 127.831 44.4833 128.139 44.0649C128.447 43.6464 128.605 43.0542 128.605 42.2963C128.605 41.5383 128.447 40.9382 128.139 40.5119C127.831 40.0855 127.358 39.8723 126.726 39.8723C126.402 39.8723 126.126 39.9276 125.889 40.0381C125.652 40.1487 125.455 40.3066 125.297 40.5119C125.139 40.7172 125.021 40.9698 124.942 41.2698C124.863 41.5699 124.823 41.9094 124.823 42.2884C124.823 43.0463 124.981 43.6385 125.297 44.057C125.613 44.4833 126.086 44.6886 126.726 44.6886V44.6965Z" fill="black"/>
<path d="M136.722 40.2278C136.69 40.2752 136.658 40.3068 136.619 40.3383C136.587 40.362 136.54 40.3778 136.477 40.3778C136.414 40.3778 136.343 40.3541 136.272 40.2989C136.193 40.2436 136.106 40.1883 135.987 40.1252C135.869 40.062 135.743 40.0067 135.577 39.9515C135.411 39.8962 135.214 39.8725 134.977 39.8725C134.661 39.8725 134.385 39.9278 134.14 40.0383C133.903 40.1488 133.698 40.3146 133.54 40.5199C133.382 40.7252 133.255 40.9858 133.177 41.2858C133.098 41.5858 133.05 41.9174 133.05 42.2885C133.05 42.6596 133.098 43.0228 133.184 43.3228C133.271 43.6229 133.398 43.8755 133.563 44.0808C133.729 44.2861 133.919 44.444 134.148 44.5467C134.377 44.6572 134.637 44.7046 134.921 44.7046C135.206 44.7046 135.419 44.673 135.6 44.6098C135.774 44.5467 135.924 44.4756 136.043 44.3887C136.161 44.3098 136.256 44.2387 136.335 44.1677C136.414 44.0966 136.493 44.0729 136.564 44.0729C136.658 44.0729 136.73 44.1045 136.777 44.1835L137.093 44.594C136.951 44.7677 136.793 44.9177 136.619 45.0362C136.445 45.1625 136.256 45.2573 136.051 45.3441C135.845 45.4231 135.632 45.4862 135.411 45.5257C135.19 45.5652 134.961 45.581 134.732 45.581C134.329 45.581 133.958 45.5099 133.619 45.3599C133.279 45.2099 132.979 44.9967 132.726 44.7204C132.474 44.444 132.276 44.0966 132.134 43.686C131.992 43.2755 131.921 42.8096 131.921 42.2885C131.921 41.8148 131.984 41.3727 132.119 40.97C132.253 40.5673 132.442 40.2199 132.703 39.9278C132.955 39.6356 133.271 39.4067 133.642 39.2409C134.013 39.0751 134.44 38.9961 134.929 38.9961C135.379 38.9961 135.774 39.0672 136.122 39.2172C136.469 39.3672 136.769 39.5646 137.037 39.833L136.737 40.2357L136.722 40.2278Z" fill="black"/>
<path d="M140.804 37.0774C140.804 37.1879 140.78 37.2906 140.74 37.3853C140.693 37.4801 140.638 37.5669 140.567 37.638C140.496 37.709 140.409 37.7722 140.306 37.8117C140.211 37.8512 140.101 37.8749 139.99 37.8749C139.88 37.8749 139.777 37.8512 139.682 37.8117C139.588 37.7722 139.509 37.709 139.43 37.638C139.359 37.5669 139.303 37.4801 139.256 37.3853C139.217 37.2906 139.193 37.1879 139.193 37.0774C139.193 36.9669 139.217 36.8642 139.256 36.7616C139.296 36.6668 139.351 36.58 139.43 36.501C139.501 36.43 139.588 36.3668 139.682 36.3273C139.777 36.2878 139.88 36.2642 139.99 36.2642C140.101 36.2642 140.204 36.2878 140.306 36.3273C140.401 36.3668 140.488 36.43 140.567 36.501C140.638 36.5721 140.701 36.6589 140.74 36.7616C140.788 36.8563 140.804 36.9669 140.804 37.0774ZM140.567 39.0829V45.4783H139.446V39.0829H140.567Z" fill="black"/>
<path d="M145.446 45.5889C144.941 45.5889 144.554 45.4468 144.278 45.1625C144.009 44.8783 143.867 44.4756 143.867 43.9466V40.0304H143.093C143.022 40.0304 142.967 40.0067 142.92 39.9673C142.872 39.9278 142.849 39.8646 142.849 39.7778V39.3277L143.899 39.1935L144.159 37.2196C144.175 37.1564 144.199 37.1012 144.246 37.0617C144.294 37.0222 144.349 36.9985 144.42 36.9985H144.988V39.2014H146.836V40.0146H144.988V43.8519C144.988 44.1203 145.051 44.3177 145.186 44.4519C145.32 44.5861 145.486 44.6493 145.691 44.6493C145.809 44.6493 145.912 44.6335 145.999 44.6019C146.086 44.5704 146.157 44.5388 146.22 44.4993C146.283 44.4598 146.338 44.4282 146.378 44.3967C146.425 44.3651 146.465 44.3493 146.496 44.3493C146.552 44.3493 146.607 44.3809 146.654 44.4598L146.986 44.9967C146.789 45.1783 146.56 45.3204 146.283 45.4231C146.007 45.5257 145.731 45.581 145.438 45.581L145.446 45.5889Z" fill="black"/>
<path d="M154.605 39.0908L151.036 47.3811C150.997 47.468 150.949 47.5312 150.894 47.5864C150.839 47.6338 150.752 47.6654 150.634 47.6654H149.797L150.965 45.123L148.328 39.0987H149.299C149.394 39.0987 149.473 39.1224 149.528 39.1698C149.584 39.2172 149.623 39.2724 149.647 39.3277L151.36 43.3544C151.423 43.5281 151.486 43.7176 151.534 43.9071C151.597 43.7097 151.66 43.5202 151.723 43.3465L153.381 39.3198C153.405 39.2487 153.452 39.1935 153.508 39.154C153.571 39.1066 153.634 39.0908 153.713 39.0908H154.605Z" fill="black"/>
</svg>
