<svg width="17" height="17" viewBox="0 0 17 17" fill="none" xmlns="http://www.w3.org/2000/svg">
<path d="M15.9765 9.6776L14.6307 4.83543C14.2362 3.41688 13.3789 2.17089 12.195 1.29552C11.011 0.420146 9.5685 -0.0343676 8.09663 0.0042225C6.62475 0.0428126 5.20801 0.572292 4.07159 1.5085C2.93518 2.4447 2.14432 3.73391 1.82471 5.17118L0.782757 9.85681C0.667663 10.3746 0.670324 10.9115 0.790543 11.4281C0.910762 11.9447 1.14547 12.4277 1.47734 12.8414C1.8092 13.2551 2.22975 13.589 2.70794 13.8185C3.18613 14.0479 3.70975 14.167 4.24013 14.167H5.02921C5.19179 14.9676 5.62615 15.6874 6.2587 16.2044C6.89125 16.7215 7.68309 17.0039 8.50005 17.0039C9.31701 17.0039 10.1088 16.7215 10.7414 16.2044C11.3739 15.6874 11.8083 14.9676 11.9709 14.167H12.5645C13.1105 14.1671 13.6491 14.0409 14.1382 13.7983C14.6274 13.5557 15.0538 13.2033 15.3842 12.7687C15.7146 12.334 15.9401 11.8288 16.0429 11.2926C16.1458 10.7564 16.1233 10.2037 15.9772 9.6776H15.9765ZM8.50005 15.5837C8.06211 15.5819 7.63544 15.4448 7.27839 15.1912C6.92134 14.9376 6.65136 14.5799 6.50538 14.167H10.4947C10.3487 14.5799 10.0788 14.9376 9.72171 15.1912C9.36466 15.4448 8.93798 15.5819 8.50005 15.5837V15.5837ZM14.256 11.911C14.0586 12.1728 13.8029 12.385 13.5091 12.5307C13.2153 12.6764 12.8917 12.7516 12.5638 12.7503H4.24013C3.92194 12.7503 3.60782 12.6788 3.32096 12.5411C3.0341 12.4034 2.78182 12.203 2.58275 11.9548C2.38367 11.7066 2.24289 11.4168 2.17078 11.1069C2.09867 10.797 2.09708 10.4748 2.16613 10.1642L3.20738 5.47789C3.45838 4.34895 4.07956 3.33632 4.97216 2.60096C5.86477 1.8656 6.97757 1.44972 8.13368 1.41943C9.28979 1.38915 10.4228 1.74619 11.3527 2.43381C12.2826 3.12142 12.9559 4.10015 13.2657 5.21439L14.6115 10.0566C14.7005 10.372 14.7146 10.7039 14.6529 11.0258C14.5912 11.3477 14.4553 11.6508 14.256 11.911V11.911Z" fill="white"/>
</svg>
