<svg width="26" height="26" viewBox="0 0 26 26" fill="none" xmlns="http://www.w3.org/2000/svg">
<path d="M20.5748 20.8289C20.5965 21.0225 20.577 21.2186 20.5175 21.4041C20.458 21.5897 20.3599 21.7606 20.2297 21.9055C20.0991 22.0502 19.9393 22.1657 19.7608 22.2442C19.5824 22.3227 19.3894 22.3625 19.1944 22.361H5.72233C5.52739 22.3625 5.33434 22.3227 5.1559 22.2442C4.97747 22.1657 4.81768 22.0502 4.68707 21.9055C4.55681 21.7606 4.45872 21.5897 4.39924 21.4041C4.33976 21.2186 4.32025 21.0225 4.34199 20.8289L5.55669 9.93799H19.3601L20.5748 20.8289Z" stroke="#00A7BF" stroke-width="1.5" stroke-linecap="round" stroke-linejoin="round"/>
<path d="M9.00757 9.93798V7.86747C9.00757 6.95225 9.37114 6.07451 10.0183 5.42735C10.6655 4.7802 11.5432 4.41663 12.4584 4.41663C13.3736 4.41663 14.2514 4.7802 14.8985 5.42735C15.5457 6.07451 15.9093 6.95225 15.9093 7.86747V9.93798" stroke="#00A7BF" stroke-width="1.5" stroke-linecap="round" stroke-linejoin="round"/>
</svg>
