<svg width="28" height="30" viewBox="0 0 28 30" fill="none" xmlns="http://www.w3.org/2000/svg">
<path d="M28 24.375H26.1333V30H1.86667V24.375H0V9.375H1.86667V0H19.9938L26.1333 6.16699V9.375H28V24.375ZM20.5333 5.625H22.9396L20.5333 3.20801V5.625ZM3.73333 9.375H24.2667V7.5H18.6667V1.875H3.73333V9.375ZM24.2667 24.375H3.73333V28.125H24.2667V24.375ZM26.1333 11.25H1.86667V22.5H26.1333V11.25ZM6.53333 13.125C6.92222 13.125 7.28681 13.1982 7.62708 13.3447C7.96736 13.4912 8.26389 13.6914 8.51667 13.9453C8.76944 14.1992 8.96875 14.4971 9.11458 14.8389C9.26042 15.1807 9.33333 15.5469 9.33333 15.9375C9.33333 16.3281 9.26042 16.6943 9.11458 17.0361C8.96875 17.3779 8.76944 17.6758 8.51667 17.9297C8.26389 18.1836 7.96736 18.3838 7.62708 18.5303C7.28681 18.6768 6.92222 18.75 6.53333 18.75H5.6V20.625H3.73333V13.125H6.53333ZM6.53333 16.875C6.78611 16.875 7.00486 16.7822 7.18958 16.5967C7.37431 16.4111 7.46667 16.1914 7.46667 15.9375C7.46667 15.6836 7.37431 15.4639 7.18958 15.2783C7.00486 15.0928 6.78611 15 6.53333 15H5.6V16.875H6.53333ZM13.0667 13.125C13.5819 13.125 14.0632 13.2227 14.5104 13.418C14.9674 13.6133 15.366 13.8818 15.7063 14.2236C16.0465 14.5654 16.3139 14.9658 16.5083 15.4248C16.7028 15.874 16.8 16.3574 16.8 16.875C16.8 17.3926 16.7028 17.8809 16.5083 18.3398C16.3139 18.7891 16.0465 19.1846 15.7063 19.5264C15.366 19.8682 14.9674 20.1367 14.5104 20.332C14.0632 20.5273 13.5819 20.625 13.0667 20.625H11.2V13.125H13.0667ZM13.0667 18.75C13.3292 18.75 13.5722 18.7012 13.7958 18.6035C14.0194 18.5059 14.2139 18.374 14.3792 18.208C14.5542 18.0322 14.6903 17.832 14.7875 17.6074C14.8847 17.3828 14.9333 17.1387 14.9333 16.875C14.9333 16.6113 14.8847 16.3672 14.7875 16.1426C14.6903 15.918 14.5542 15.7227 14.3792 15.5566C14.2139 15.3809 14.0194 15.2441 13.7958 15.1465C13.5722 15.0488 13.3292 15 13.0667 15V18.75ZM18.6667 13.125H23.3333V15H20.5333V16.875H23.3333V18.75H20.5333V20.625H18.6667V13.125Z" fill="#D9D9D9"/>
</svg>
