<svg width="17" height="22" viewBox="0 0 17 22" fill="none" xmlns="http://www.w3.org/2000/svg">
<path d="M12.25 2.5H14.5C14.8978 2.5 15.2794 2.65804 15.5607 2.93934C15.842 3.22064 16 3.60218 16 4V19C16 19.3978 15.842 19.7794 15.5607 20.0607C15.2794 20.342 14.8978 20.5 14.5 20.5H2.5C2.10218 20.5 1.72064 20.342 1.43934 20.0607C1.15804 19.7794 1 19.3978 1 19V4C1 3.60218 1.15804 3.22064 1.43934 2.93934C1.72064 2.65804 2.10218 2.5 2.5 2.5H4.75" stroke="#1B283D" stroke-width="1.5" stroke-linecap="round" stroke-linejoin="round"/>
<path d="M10.75 1H6.25C5.42157 1 4.75 1.67157 4.75 2.5V3.25C4.75 4.07843 5.42157 4.75 6.25 4.75H10.75C11.5784 4.75 12.25 4.07843 12.25 3.25V2.5C12.25 1.67157 11.5784 1 10.75 1Z" stroke="#1B283D" stroke-width="1.5" stroke-linecap="round" stroke-linejoin="round"/>
<path d="M4.75 8.5H12.25" stroke="#1B283D" stroke-width="1.5" stroke-linecap="round" stroke-linejoin="round"/>
<path d="M4.75 12.25H12.25" stroke="#1B283D" stroke-width="1.5" stroke-linecap="round" stroke-linejoin="round"/>
<path d="M4.75 16H12.25" stroke="#1B283D" stroke-width="1.5" stroke-linecap="round" stroke-linejoin="round"/>
</svg>
