<svg width="29" height="29" viewBox="0 0 29 29" fill="none" xmlns="http://www.w3.org/2000/svg">
<path d="M23.7935 28.9782C23.236 28.9782 22.6724 28.96 22.1148 28.9782C21.4603 29.0084 20.9755 28.96 20.9694 28.0769C20.9573 27.1515 21.4724 27.1031 22.1633 27.1212C23.1935 27.1454 24.2298 27.1394 25.2601 27.1212C26.5388 27.1031 27.0175 26.6313 27.0418 25.349C27.06 24.23 27.066 23.111 27.0418 21.992C27.0297 21.2964 27.369 21.0847 28.0235 21.0847C28.672 21.0847 29.0174 21.2662 28.9992 21.986C28.9689 23.105 29.0174 24.224 28.9811 25.3429C28.9144 27.6293 27.5084 28.96 25.2055 28.9721C24.7328 28.9721 24.2601 28.9721 23.7874 28.9721L23.7935 28.9782Z" fill="white"/>
<path d="M21.6784 1.84404C20.9815 1.84404 20.9876 1.35411 20.9876 0.85812C20.9876 0.362134 21.0845 -0.00683268 21.7087 0.00526455C23.0965 0.0234104 24.4843 -0.0310272 25.866 0.029459C27.5265 0.102042 28.8355 1.48113 28.9567 3.32596C29.0416 4.58407 28.9689 5.85428 28.987 7.12449C28.9931 7.78984 28.5992 7.89266 28.0598 7.88057C27.575 7.86847 27.0902 7.92896 27.0902 7.20312C27.0902 6.05388 27.0417 4.9107 27.0538 3.76146C27.066 2.43076 26.5569 1.88639 25.2115 1.85614" fill="white"/>
<path d="M5.10398 28.978C4.48584 28.978 3.86769 28.9901 3.24955 28.978C1.46785 28.9296 0.0618774 27.5385 0.0194559 25.7723C-0.0108452 24.5081 0.0376361 23.2439 0.0012748 21.9798C-0.0169059 21.3084 0.280045 21.1148 0.898187 21.1088C1.55269 21.1027 1.886 21.2963 1.86782 22.01C1.83752 23.1593 1.84964 24.3025 1.86782 25.4517C1.886 26.5828 2.4193 27.1151 3.56468 27.1332C4.68582 27.1513 5.80696 27.1634 6.92204 27.1332C7.62503 27.1151 7.92804 27.351 7.92198 28.101C7.91592 28.8087 7.62503 29.0325 6.9584 28.9962C6.34026 28.9599 5.72212 28.9901 5.10398 28.9901V28.978Z" fill="white"/>
<path d="M7.15221 0.00525043C7.83096 -0.0249927 7.90974 0.380265 7.9158 0.912544C7.9158 1.44482 7.84308 1.85613 7.1704 1.85008C6.01895 1.83798 4.86751 1.84403 3.71001 1.85613C2.38888 1.87427 1.87983 2.37631 1.86771 3.67071C1.85559 4.78971 1.84347 5.91475 1.86771 7.03375C1.87983 7.71724 1.53439 7.8866 0.928372 7.88055C0.334471 7.88055 -0.0230818 7.73539 0.00115902 7.03979C0.0375203 5.74539 -0.0170212 4.44494 0.0193401 3.14448C0.0678218 1.46902 1.47985 0.077834 3.15853 0.0112992" fill="white"/>
<path d="M4.84322 9.79205L7.68546 14.262L10.5701 9.07227H5.24319C4.87352 9.07227 4.64929 9.47752 4.84928 9.79205H4.84322Z" fill="white"/>
<path d="M10.9157 19.2762C11.0975 19.5363 11.5278 19.4335 11.6793 19.1552L16.9457 9.55001C17.0669 9.32016 16.8911 9.05402 16.6305 9.07217H13.255L9.13403 16.4938L10.9157 19.2762V19.2762Z" fill="white"/>
<path d="M12.6248 21.9496L13.8307 23.8307C14.055 24.1815 14.5701 24.1694 14.7761 23.8065L22.4968 10.1548L19.9213 9.07812L12.6248 21.9556V21.9496Z" fill="white"/>
<path d="M18.2305 8.31003L23.5816 4.72925L24.0846 11.0198L18.2305 8.31003Z" fill="white"/>
</svg>
