<svg width="16" height="16" viewBox="0 0 16 16" fill="none" xmlns="http://www.w3.org/2000/svg">
<path d="M6.3833 12.7669C7.7695 12.7669 9.0479 12.3179 10.0938 11.5709L14.0283 15.5059C14.2109 15.6889 14.4517 15.7799 14.709 15.7799C15.2485 15.7799 15.6304 15.3649 15.6304 14.8339C15.6304 14.5849 15.5474 14.3439 15.3647 14.1699L11.4551 10.2519C12.2769 9.1719 12.7666 7.8359 12.7666 6.3833C12.7666 2.8721 9.8945 0 6.3833 0C2.8804 0 0 2.8638 0 6.3833C0 9.8949 2.8721 12.7669 6.3833 12.7669ZM6.3833 11.3889C3.644 11.3889 1.3779 9.1229 1.3779 6.3833C1.3779 3.6441 3.644 1.3779 6.3833 1.3779C9.1226 1.3779 11.3887 3.6441 11.3887 6.3833C11.3887 9.1229 9.1226 11.3889 6.3833 11.3889Z" fill="#3C3C43" fill-opacity="0.6"/>
</svg>
