<svg width="22" height="24" viewBox="0 0 22 24" fill="none" xmlns="http://www.w3.org/2000/svg">
<path d="M8.44469 3.08948L7.7463 3.25064C7.80955 3.5259 7.81746 3.81098 7.76956 4.08931C7.72165 4.36765 7.6189 4.63369 7.46727 4.87196C7.31565 5.11023 7.11817 5.31599 6.88631 5.47727C6.65446 5.63854 6.39286 5.75212 6.11673 5.8114C5.55678 5.92919 4.97298 5.82259 4.49078 5.51453C4.00859 5.20646 3.66651 4.72152 3.53806 4.16392L2.14129 4.45044C1.94974 4.49223 1.76865 4.57243 1.60896 4.68617C1.44927 4.79992 1.3143 4.94486 1.2122 5.11224C1.1101 5.27961 1.043 5.46595 1.01493 5.65998C0.986873 5.85402 0.998439 6.05174 1.04893 6.24118C1.04893 6.24118 1.6936 9.23171 2.44571 12.5983" stroke="#1B283D" stroke-width="1.5" stroke-linecap="round" stroke-linejoin="round"/>
<path d="M18.7415 3.59386C18.6345 3.89538 18.4674 4.17205 18.2503 4.40708C18.0332 4.64212 17.7707 4.83065 17.4786 4.96123C17.1865 5.09181 16.8709 5.16174 16.551 5.16677C16.2311 5.1718 15.9135 5.11183 15.6174 4.9905C15.3214 4.86916 15.053 4.68899 14.8287 4.46089C14.6043 4.2328 14.4286 3.96153 14.3121 3.66351C14.1957 3.3655 14.141 3.04695 14.1513 2.72717C14.1616 2.40738 14.2367 2.09302 14.3721 1.80312L12.9216 1.12264C12.5343 0.961224 12.0989 0.95907 11.71 1.11664C11.3211 1.27421 11.01 1.57879 10.8443 1.96428L4.82743 16.129L4.03951 17.9198C3.87809 18.3071 3.87594 18.7424 4.03351 19.1313C4.19108 19.5202 4.49566 19.8313 4.88115 19.997L12.1516 23.095C12.5389 23.2564 12.9742 23.2586 13.3631 23.101C13.752 22.9434 14.0631 22.6389 14.2288 22.2534L21.0336 6.24415C21.1837 5.87187 21.1877 5.45669 21.045 5.08156C20.9022 4.70643 20.6232 4.39897 20.2636 4.22061L18.7415 3.59386Z" stroke="#1B283D" stroke-width="1.5" stroke-linecap="round" stroke-linejoin="round"/>
</svg>
