<svg width="11" height="13" viewBox="0 0 11 13" fill="none" xmlns="http://www.w3.org/2000/svg">
<path d="M8.47999 4.52002H9.35999C9.47668 4.52002 9.5886 4.56638 9.67111 4.64889C9.75363 4.73141 9.79999 4.84332 9.79999 4.96002V11.56C9.79999 11.6767 9.75363 11.7886 9.67111 11.8711C9.5886 11.9537 9.47668 12 9.35999 12H1.44C1.3233 12 1.21139 11.9537 1.12887 11.8711C1.04636 11.7886 1 11.6767 1 11.56V4.96002C1 4.84332 1.04636 4.73141 1.12887 4.64889C1.21139 4.56638 1.3233 4.52002 1.44 4.52002H2.32" stroke="white" stroke-width="1.5" stroke-linecap="round" stroke-linejoin="round"/>
<path d="M5.39999 1V8.03999" stroke="white" stroke-width="1.5" stroke-linecap="round" stroke-linejoin="round"/>
<path d="M3.63998 6.27979L5.39998 8.03978L7.15998 6.27979" stroke="white" stroke-width="1.5" stroke-linecap="round" stroke-linejoin="round"/>
</svg>
