<svg width="17" height="17" viewBox="0 0 17 17" fill="none" xmlns="http://www.w3.org/2000/svg">
<path d="M3.32001 11.64C4.39001 13.36 6.29001 14.38 8.32001 14.34C10.35 14.38 12.25 13.36 13.32 11.64C13.29 10.91 12.71 10.3 11.56 9.80001C10.54 9.33001 9.44001 9.08001 8.32001 9.06001C7.20001 9.08001 6.10001 9.33001 5.08001 9.78001C3.93001 10.26 3.35001 10.88 3.32001 11.64ZM10.08 3.24001C9.62001 2.76001 8.99001 2.49001 8.32001 2.50001C7.66001 2.50001 7.02001 2.76001 6.56001 3.24001C6.08001 3.70001 5.81001 4.33001 5.82001 5.00001C5.82001 5.66001 6.08001 6.30001 6.56001 6.76001C7.02001 7.24001 7.65001 7.51001 8.32001 7.50001C8.98001 7.50001 9.62001 7.24001 10.08 6.76001C10.56 6.30001 10.83 5.67001 10.82 5.00001C10.82 4.34001 10.56 3.70001 10.08 3.24001ZM2.44001 2.44001C3.98001 0.85001 6.11001 -0.0299898 8.32001 1.02345e-05C10.53 -0.0299898 12.66 0.85001 14.2 2.44001C15.79 3.98001 16.67 6.11001 16.64 8.32001C16.67 10.53 15.79 12.66 14.2 14.2C12.66 15.79 10.53 16.67 8.32001 16.64C6.11001 16.67 3.98001 15.79 2.44001 14.2C0.85001 12.66 -0.0299898 10.53 1.02345e-05 8.32001C-0.0299898 6.11001 0.85001 3.98001 2.44001 2.44001Z" fill="#5A676F"/>
</svg>
